<svg xmlns="http://www.w3.org/2000/svg" xmlns:xlink="http://www.w3.org/1999/xlink" width="777" zoomAndPan="magnify" viewBox="0 0 582.75 204.749996" height="273" preserveAspectRatio="xMidYMid meet" version="1.0"><defs><g/></defs><g fill="#000000" fill-opacity="1"><g transform="translate(20.689294, 180.011449)"><g><path d="M 37.636719 -96.894531 L 8.785156 -96.894531 L 8.785156 0 L 31.285156 0 L 31.285156 -62.164062 L 62.296875 0 L 79.730469 0 L 110.746094 -62.164062 L 110.746094 0 L 133.246094 0 L 133.246094 -96.894531 L 104.394531 -96.894531 L 71.015625 -30 Z M 37.636719 -96.894531 "/></g></g></g><g fill="#000000" fill-opacity="1"><g transform="translate(162.71556, 180.011449)"><g><path d="M 8.039062 0 L 30.136719 0 L 30.136719 -69.59375 L 8.039062 -69.59375 Z M 7.433594 -90.136719 C 7.433594 -83.71875 12.636719 -78.515625 19.054688 -78.515625 C 25.472656 -78.515625 30.675781 -83.71875 30.675781 -90.136719 C 30.675781 -96.554688 25.472656 -101.757812 19.054688 -101.757812 C 12.636719 -101.757812 7.433594 -96.554688 7.433594 -90.136719 Z M 7.433594 -90.136719 "/></g></g></g><g fill="#000000" fill-opacity="1"><g transform="translate(200.823464, 180.011449)"><g><path d="M 76.960938 -66.960938 C 76.960938 -66.960938 69.933594 -71.621094 54.933594 -71.621094 C 41.015625 -71.621094 33.648438 -66.351562 29.59375 -60.203125 L 29.59375 -69.59375 L 7.433594 -69.59375 L 7.433594 0 L 29.59375 0 L 29.59375 -33.378906 C 29.59375 -44.867188 34.390625 -54.59375 50.539062 -54.59375 C 61.082031 -54.59375 67.566406 -51.214844 67.566406 -51.214844 Z M 76.960938 -66.960938 "/></g></g></g><g fill="#000000" fill-opacity="1"><g transform="translate(279.133862, 180.011449)"><g><path d="M 76.960938 -66.960938 C 76.960938 -66.960938 69.933594 -71.621094 54.933594 -71.621094 C 41.015625 -71.621094 33.648438 -66.351562 29.59375 -60.203125 L 29.59375 -69.59375 L 7.433594 -69.59375 L 7.433594 0 L 29.59375 0 L 29.59375 -33.378906 C 29.59375 -44.867188 34.390625 -54.59375 50.539062 -54.59375 C 61.082031 -54.59375 67.566406 -51.214844 67.566406 -51.214844 Z M 76.960938 -66.960938 "/></g></g></g><g fill="#000000" fill-opacity="1"><g transform="translate(357.444244, 180.011449)"><g><path d="M 53.515625 2.027344 C 85.8125 2.027344 102.296875 -13.039062 102.296875 -34.796875 C 102.296875 -56.621094 85.8125 -71.621094 53.515625 -71.621094 C 21.214844 -71.621094 4.730469 -56.621094 4.730469 -34.796875 C 4.730469 -13.039062 21.214844 2.027344 53.515625 2.027344 Z M 53.515625 -15 C 34.390625 -15 26.890625 -23.378906 26.890625 -34.796875 C 26.890625 -46.214844 34.390625 -54.59375 53.515625 -54.59375 C 72.636719 -54.59375 80.136719 -46.214844 80.136719 -34.796875 C 80.136719 -23.378906 72.636719 -15 53.515625 -15 Z M 53.515625 -15 "/></g></g></g><g fill="#000000" fill-opacity="1"><g transform="translate(464.470697, 180.011449)"><g><path d="M 76.960938 -66.960938 C 76.960938 -66.960938 69.933594 -71.621094 54.933594 -71.621094 C 41.015625 -71.621094 33.648438 -66.351562 29.59375 -60.203125 L 29.59375 -69.59375 L 7.433594 -69.59375 L 7.433594 0 L 29.59375 0 L 29.59375 -33.378906 C 29.59375 -44.867188 34.390625 -54.59375 50.539062 -54.59375 C 61.082031 -54.59375 67.566406 -51.214844 67.566406 -51.214844 Z M 76.960938 -66.960938 "/></g></g></g><path fill="#000000" d="M 527.976562 52.257812 C 518.929688 49.183594 509.222656 48.71875 499.777344 47.683594 C 470.835938 44.964844 441.769531 49.261719 413.644531 55.988281 C 378.148438 64.378906 330.554688 81.839844 296.410156 62.300781 C 308.0625 53.289062 322.371094 41.890625 327.527344 27.742188 C 331.03125 17.714844 322.695312 10.28125 313.285156 15.542969 C 306.695312 19.316406 303.386719 26.5 300.605469 33.273438 C 298.152344 26.175781 288.464844 17.097656 281.683594 24.570312 C 273.984375 36.09375 280.96875 54.128906 290.960938 62.242188 C 282.242188 68.183594 272.644531 73.160156 262.210938 75.203125 C 258.023438 76.0625 253.753906 76.363281 249.488281 76.246094 C 248.066406 76.355469 246.378906 75.648438 245.109375 76.4375 C 242.730469 79.683594 248.070312 79.375 250.003906 79.421875 C 265.863281 79.945312 280.878906 73.175781 293.636719 64.265625 C 330.417969 86.707031 381.859375 66.085938 420.449219 57.679688 C 447.941406 51.371094 476.398438 48.046875 504.539062 51.316406 C 511.492188 52.164062 518.582031 52.683594 525.320312 54.679688 C 529.101562 56 532.851562 57.371094 536.519531 58.972656 C 537.824219 59.382812 540.082031 61.453125 541.210938 59.535156 C 542.980469 56.550781 530.554688 53.554688 527.980469 52.257812 Z M 281.800781 38.394531 C 281.550781 34.023438 281.449219 28.386719 285.355469 25.527344 C 292.285156 22.824219 297.421875 32.433594 298.839844 37.976562 C 292.753906 52.988281 305.457031 53.46875 302.136719 38.125 C 304.980469 30.851562 307.828125 22.488281 314.886719 18.269531 C 320.652344 15.027344 326.410156 18.183594 324.90625 25.085938 C 321.351562 38.960938 304.757812 51.894531 293.695312 60.382812 C 286.863281 55.136719 282.667969 46.898438 281.796875 38.394531 Z M 281.800781 38.394531 " fill-opacity="1" fill-rule="nonzero"/><g fill="#000000" fill-opacity="1"><g transform="translate(21.806199, 61.171786)"><g><path d="M 36.382812 -31.363281 L 36.382812 -24.691406 C 36.382812 -24.691406 32.953125 -31.988281 22.449219 -31.988281 C 9.382812 -31.988281 3.429688 -24.441406 3.429688 -15.683594 C 3.429688 -6.921875 9.382812 0.625 22.449219 0.625 C 32.953125 0.625 36.382812 -6.671875 36.382812 -6.671875 L 36.382812 16.585938 L 41.1875 16.585938 L 41.1875 -31.363281 Z M 22.449219 -3.492188 C 12.566406 -3.492188 8.511719 -9.230469 8.511719 -15.683594 C 8.511719 -22.136719 12.566406 -27.871094 22.449219 -27.871094 C 32.332031 -27.871094 36.382812 -22.136719 36.382812 -15.683594 C 36.382812 -9.199219 32.332031 -3.492188 22.449219 -3.492188 Z M 22.449219 -3.492188 "/></g></g></g><g fill="#000000" fill-opacity="1"><g transform="translate(67.655403, 61.171786)"><g><path d="M 33.171875 -15.152344 C 33.171875 -8.980469 30.179688 -3.492188 21.324219 -3.492188 C 12.472656 -3.492188 9.476562 -8.980469 9.476562 -15.152344 L 9.476562 -31.363281 L 4.675781 -31.363281 L 4.675781 -15.152344 C 4.675781 -5.984375 9.882812 0.625 21.324219 0.625 C 31.300781 0.625 33.171875 -5.832031 33.171875 -5.832031 L 33.171875 0 L 37.972656 0 L 37.972656 -31.363281 L 33.171875 -31.363281 Z M 33.171875 -15.152344 "/></g></g></g><g fill="#000000" fill-opacity="1"><g transform="translate(110.294218, 61.171786)"><g><path d="M 21.355469 -13.34375 L 34.546875 0 L 40.84375 0 L 24.535156 -16.492188 L 39.128906 -31.363281 L 32.832031 -31.363281 L 21.355469 -19.640625 L 9.882812 -31.363281 L 3.585938 -31.363281 L 18.175781 -16.492188 L 1.871094 0 L 8.167969 0 Z M 21.355469 -13.34375 "/></g></g></g><g fill="#000000" fill-opacity="1"><g transform="translate(152.995369, 61.171786)"><g><path d="M 9.476562 -16.210938 C 9.476562 -22.386719 12.472656 -27.871094 21.324219 -27.871094 C 30.179688 -27.871094 33.171875 -22.386719 33.171875 -16.210938 L 33.171875 0 L 37.972656 0 L 37.972656 -16.210938 C 37.972656 -25.378906 32.769531 -31.988281 21.324219 -31.988281 C 11.347656 -31.988281 9.476562 -25.535156 9.476562 -25.535156 L 9.476562 -31.363281 L 4.675781 -31.363281 L 4.675781 0 L 9.476562 0 Z M 9.476562 -16.210938 "/></g></g></g><g fill="#000000" fill-opacity="1"><g transform="translate(195.634184, 61.171786)"><g><path d="M 36.382812 -31.363281 L 36.382812 -24.691406 C 36.199219 -25.035156 32.675781 -31.988281 22.449219 -31.988281 C 9.382812 -31.988281 3.429688 -24.441406 3.429688 -15.683594 C 3.429688 -6.921875 9.382812 0.625 22.449219 0.625 C 32.675781 0.625 36.199219 -6.296875 36.382812 -6.640625 L 36.382812 0 C 36.382812 8.480469 32.050781 12.472656 22.449219 12.472656 C 15.246094 12.472656 9.074219 9.011719 9.074219 9.011719 L 6.890625 12.84375 C 6.890625 12.84375 12.191406 16.585938 22.449219 16.585938 C 32.332031 16.585938 41.1875 13.1875 41.1875 0 L 41.1875 -31.363281 Z M 22.449219 -3.492188 C 12.566406 -3.492188 8.511719 -9.230469 8.511719 -15.683594 C 8.511719 -22.136719 12.566406 -27.871094 22.449219 -27.871094 C 32.332031 -27.871094 36.382812 -22.136719 36.382812 -15.683594 C 36.382812 -9.199219 32.332031 -3.492188 22.449219 -3.492188 Z M 22.449219 -3.492188 "/></g></g></g></svg>