<svg xmlns="http://www.w3.org/2000/svg" xmlns:xlink="http://www.w3.org/1999/xlink" width="1000" zoomAndPan="magnify" viewBox="0 0 750 749.999995" height="1000" preserveAspectRatio="xMidYMid meet" version="1.0"><defs><g/></defs><g fill="#ffffff" fill-opacity="1"><g transform="translate(85.974622, 445.734226)"><g><path d="M 42.460938 -109.316406 L 9.910156 -109.316406 L 9.910156 0 L 35.292969 0 L 35.292969 -70.132812 L 70.285156 0 L 89.953125 0 L 124.941406 -70.132812 L 124.941406 0 L 150.328125 0 L 150.328125 -109.316406 L 117.777344 -109.316406 L 80.117188 -33.847656 Z M 42.460938 -109.316406 "/></g></g></g><g fill="#ffffff" fill-opacity="1"><g transform="translate(246.20817, 445.734226)"><g><path d="M 9.070312 0 L 34 0 L 34 -78.515625 L 9.070312 -78.515625 Z M 8.386719 -101.691406 C 8.386719 -94.449219 14.253906 -88.578125 21.496094 -88.578125 C 28.738281 -88.578125 34.609375 -94.449219 34.609375 -101.691406 C 34.609375 -108.933594 28.738281 -114.804688 21.496094 -114.804688 C 14.253906 -114.804688 8.386719 -108.933594 8.386719 -101.691406 Z M 8.386719 -101.691406 "/></g></g></g><g fill="#ffffff" fill-opacity="1"><g transform="translate(289.201378, 445.734226)"><g><path d="M 86.828125 -75.542969 C 86.828125 -75.542969 78.898438 -80.804688 61.976562 -80.804688 C 46.273438 -80.804688 37.960938 -74.859375 33.390625 -67.921875 L 33.390625 -78.515625 L 8.386719 -78.515625 L 8.386719 0 L 33.390625 0 L 33.390625 -37.65625 C 33.390625 -50.617188 38.800781 -61.59375 57.019531 -61.59375 C 68.914062 -61.59375 76.230469 -57.78125 76.230469 -57.78125 Z M 86.828125 -75.542969 "/></g></g></g><g fill="#ffffff" fill-opacity="1"><g transform="translate(377.550884, 445.734226)"><g><path d="M 86.828125 -75.542969 C 86.828125 -75.542969 78.898438 -80.804688 61.976562 -80.804688 C 46.273438 -80.804688 37.960938 -74.859375 33.390625 -67.921875 L 33.390625 -78.515625 L 8.386719 -78.515625 L 8.386719 0 L 33.390625 0 L 33.390625 -37.65625 C 33.390625 -50.617188 38.800781 -61.59375 57.019531 -61.59375 C 68.914062 -61.59375 76.230469 -57.78125 76.230469 -57.78125 Z M 86.828125 -75.542969 "/></g></g></g><g fill="#ffffff" fill-opacity="1"><g transform="translate(465.900412, 445.734226)"><g><path d="M 60.375 2.285156 C 96.8125 2.285156 115.414062 -14.710938 115.414062 -39.257812 C 115.414062 -63.882812 96.8125 -80.804688 60.375 -80.804688 C 23.9375 -80.804688 5.335938 -63.882812 5.335938 -39.257812 C 5.335938 -14.710938 23.9375 2.285156 60.375 2.285156 Z M 60.375 -16.921875 C 38.800781 -16.921875 30.339844 -26.375 30.339844 -39.257812 C 30.339844 -52.140625 38.800781 -61.59375 60.375 -61.59375 C 81.949219 -61.59375 90.410156 -52.140625 90.410156 -39.257812 C 90.410156 -26.375 81.949219 -16.921875 60.375 -16.921875 Z M 60.375 -16.921875 "/></g></g></g><g fill="#ffffff" fill-opacity="1"><g transform="translate(586.647294, 445.734226)"><g><path d="M 86.828125 -75.542969 C 86.828125 -75.542969 78.898438 -80.804688 61.976562 -80.804688 C 46.273438 -80.804688 37.960938 -74.859375 33.390625 -67.921875 L 33.390625 -78.515625 L 8.386719 -78.515625 L 8.386719 0 L 33.390625 0 L 33.390625 -37.65625 C 33.390625 -50.617188 38.800781 -61.59375 57.019531 -61.59375 C 68.914062 -61.59375 76.230469 -57.78125 76.230469 -57.78125 Z M 86.828125 -75.542969 "/></g></g></g><path fill="#ffffff" d="M 657.96875 283.75 C 647.648438 280.25 636.574219 279.722656 625.800781 278.546875 C 592.789062 275.453125 559.632812 280.339844 527.558594 288 C 487.066406 297.546875 432.777344 317.417969 393.832031 295.183594 C 407.125 284.925781 423.445312 271.953125 429.324219 255.851562 C 433.320312 244.4375 423.8125 235.976562 413.082031 241.960938 C 405.5625 246.257812 401.789062 254.433594 398.617188 262.144531 C 395.820312 254.066406 384.765625 243.734375 377.035156 252.238281 C 368.25 265.355469 376.21875 285.878906 387.617188 295.117188 C 377.671875 301.875 366.722656 307.542969 354.824219 309.867188 C 350.046875 310.84375 345.175781 311.1875 340.3125 311.054688 C 338.6875 311.175781 336.761719 310.375 335.316406 311.273438 C 332.601562 314.96875 338.691406 314.617188 340.898438 314.667969 C 358.988281 315.261719 376.117188 307.5625 390.667969 297.417969 C 432.621094 322.960938 491.296875 299.492188 535.316406 289.921875 C 566.675781 282.742188 599.132812 278.957031 631.234375 282.679688 C 639.167969 283.644531 647.25 284.234375 654.9375 286.511719 C 659.25 288.007812 663.527344 289.570312 667.710938 291.390625 C 669.199219 291.859375 671.773438 294.21875 673.0625 292.035156 C 675.082031 288.640625 660.90625 285.226562 657.972656 283.75 Z M 377.167969 267.972656 C 376.882812 262.996094 376.765625 256.582031 381.222656 253.328125 C 389.128906 250.25 394.984375 261.191406 396.601562 267.5 C 389.660156 284.582031 404.148438 285.128906 400.367188 267.667969 C 403.605469 259.390625 406.855469 249.871094 414.90625 245.066406 C 421.484375 241.378906 428.050781 244.972656 426.332031 252.824219 C 422.28125 268.621094 403.355469 283.339844 390.734375 292.996094 C 382.941406 287.027344 378.15625 277.652344 377.164062 267.972656 Z M 377.167969 267.972656 " fill-opacity="1" fill-rule="nonzero"/><g fill="#ffffff" fill-opacity="1"><g transform="translate(85.990318, 303.808116)"><g><path d="M 40.8125 -35.183594 L 40.8125 -27.699219 C 40.8125 -27.699219 36.964844 -35.882812 25.179688 -35.882812 C 10.527344 -35.882812 3.847656 -27.417969 3.847656 -17.589844 C 3.847656 -7.765625 10.527344 0.699219 25.179688 0.699219 C 36.964844 0.699219 40.8125 -7.484375 40.8125 -7.484375 L 40.8125 18.605469 L 46.199219 18.605469 L 46.199219 -35.183594 Z M 25.179688 -3.917969 C 14.09375 -3.917969 9.546875 -10.351562 9.546875 -17.589844 C 9.546875 -24.832031 14.09375 -31.265625 25.179688 -31.265625 C 36.265625 -31.265625 40.8125 -24.832031 40.8125 -17.589844 C 40.8125 -10.316406 36.265625 -3.917969 25.179688 -3.917969 Z M 25.179688 -3.917969 "/></g></g><g transform="translate(137.435812, 303.808116)"><g><path d="M 37.210938 -16.996094 C 37.210938 -10.070312 33.855469 -3.917969 23.921875 -3.917969 C 13.988281 -3.917969 10.632812 -10.070312 10.632812 -16.996094 L 10.632812 -35.183594 L 5.246094 -35.183594 L 5.246094 -16.996094 C 5.246094 -6.714844 11.085938 0.699219 23.921875 0.699219 C 35.113281 0.699219 37.210938 -6.539062 37.210938 -6.539062 L 37.210938 0 L 42.597656 0 L 42.597656 -35.183594 L 37.210938 -35.183594 Z M 37.210938 -16.996094 "/></g></g><g transform="translate(185.279071, 303.808116)"><g><path d="M 23.957031 -14.96875 L 38.75 0 L 45.816406 0 L 27.523438 -18.5 L 43.890625 -35.183594 L 36.828125 -35.183594 L 23.957031 -22.03125 L 11.085938 -35.183594 L 4.023438 -35.183594 L 20.390625 -18.5 L 2.097656 0 L 9.164062 0 Z M 23.957031 -14.96875 "/></g></g><g transform="translate(233.192277, 303.808116)"><g><path d="M 10.632812 -18.1875 C 10.632812 -25.109375 13.988281 -31.265625 23.921875 -31.265625 C 33.855469 -31.265625 37.210938 -25.109375 37.210938 -18.1875 L 37.210938 0 L 42.597656 0 L 42.597656 -18.1875 C 42.597656 -28.46875 36.757812 -35.882812 23.921875 -35.882812 C 12.730469 -35.882812 10.632812 -28.644531 10.632812 -28.644531 L 10.632812 -35.183594 L 5.246094 -35.183594 L 5.246094 0 L 10.632812 0 Z M 10.632812 -18.1875 "/></g></g><g transform="translate(281.035536, 303.808116)"><g><path d="M 40.8125 -35.183594 L 40.8125 -27.699219 C 40.605469 -28.082031 36.652344 -35.882812 25.179688 -35.882812 C 10.527344 -35.882812 3.847656 -27.417969 3.847656 -17.589844 C 3.847656 -7.765625 10.527344 0.699219 25.179688 0.699219 C 36.652344 0.699219 40.605469 -7.066406 40.8125 -7.449219 L 40.8125 0 C 40.8125 9.511719 35.953125 13.988281 25.179688 13.988281 C 17.101562 13.988281 10.175781 10.105469 10.175781 10.105469 L 7.730469 14.410156 C 7.730469 14.410156 13.675781 18.605469 25.179688 18.605469 C 36.265625 18.605469 46.199219 14.792969 46.199219 0 L 46.199219 -35.183594 Z M 25.179688 -3.917969 C 14.09375 -3.917969 9.546875 -10.351562 9.546875 -17.589844 C 9.546875 -24.832031 14.09375 -31.265625 25.179688 -31.265625 C 36.265625 -31.265625 40.8125 -24.832031 40.8125 -17.589844 C 40.8125 -10.316406 36.265625 -3.917969 25.179688 -3.917969 Z M 25.179688 -3.917969 "/></g></g></g></svg>