<svg xmlns="http://www.w3.org/2000/svg" xmlns:xlink="http://www.w3.org/1999/xlink" width="777" zoomAndPan="magnify" viewBox="0 0 582.75 204.749996" height="273" preserveAspectRatio="xMidYMid meet" version="1.0"><defs><g/></defs><g fill="#ffffff" fill-opacity="1"><g transform="translate(20.689294, 183.43687)"><g><path d="M 38.617188 -99.417969 L 9.011719 -99.417969 L 9.011719 0 L 32.097656 0 L 32.097656 -63.78125 L 63.921875 0 L 81.808594 0 L 113.628906 -63.78125 L 113.628906 0 L 136.714844 0 L 136.714844 -99.417969 L 107.113281 -99.417969 L 72.863281 -30.78125 Z M 38.617188 -99.417969 "/></g></g></g><g fill="#ffffff" fill-opacity="1"><g transform="translate(166.416193, 183.43687)"><g><path d="M 8.25 0 L 30.921875 0 L 30.921875 -71.410156 L 8.25 -71.410156 Z M 7.625 -92.484375 C 7.625 -85.898438 12.964844 -80.558594 19.550781 -80.558594 C 26.136719 -80.558594 31.476562 -85.898438 31.476562 -92.484375 C 31.476562 -99.070312 26.136719 -104.410156 19.550781 -104.410156 C 12.964844 -104.410156 7.625 -99.070312 7.625 -92.484375 Z M 7.625 -92.484375 "/></g></g></g><g fill="#ffffff" fill-opacity="1"><g transform="translate(205.517036, 183.43687)"><g><path d="M 78.964844 -68.703125 C 78.964844 -68.703125 71.753906 -73.488281 56.363281 -73.488281 C 42.082031 -73.488281 34.527344 -68.082031 30.367188 -61.773438 L 30.367188 -71.410156 L 7.625 -71.410156 L 7.625 0 L 30.367188 0 L 30.367188 -34.25 C 30.367188 -46.035156 35.289062 -56.019531 51.859375 -56.019531 C 62.671875 -56.019531 69.328125 -52.550781 69.328125 -52.550781 Z M 78.964844 -68.703125 "/></g></g></g><g fill="#ffffff" fill-opacity="1"><g transform="translate(285.867889, 183.43687)"><g><path d="M 78.964844 -68.703125 C 78.964844 -68.703125 71.753906 -73.488281 56.363281 -73.488281 C 42.082031 -73.488281 34.527344 -68.082031 30.367188 -61.773438 L 30.367188 -71.410156 L 7.625 -71.410156 L 7.625 0 L 30.367188 0 L 30.367188 -34.25 C 30.367188 -46.035156 35.289062 -56.019531 51.859375 -56.019531 C 62.671875 -56.019531 69.328125 -52.550781 69.328125 -52.550781 Z M 78.964844 -68.703125 "/></g></g></g><g fill="#ffffff" fill-opacity="1"><g transform="translate(366.218725, 183.43687)"><g><path d="M 54.910156 2.078125 C 88.046875 2.078125 104.964844 -13.378906 104.964844 -35.703125 C 104.964844 -58.097656 88.046875 -73.488281 54.910156 -73.488281 C 21.769531 -73.488281 4.851562 -58.097656 4.851562 -35.703125 C 4.851562 -13.378906 21.769531 2.078125 54.910156 2.078125 Z M 54.910156 -15.390625 C 35.289062 -15.390625 27.59375 -23.988281 27.59375 -35.703125 C 27.59375 -47.421875 35.289062 -56.019531 54.910156 -56.019531 C 74.527344 -56.019531 82.222656 -47.421875 82.222656 -35.703125 C 82.222656 -23.988281 74.527344 -15.390625 54.910156 -15.390625 Z M 54.910156 -15.390625 "/></g></g></g><g fill="#ffffff" fill-opacity="1"><g transform="translate(476.033857, 183.43687)"><g><path d="M 78.964844 -68.703125 C 78.964844 -68.703125 71.753906 -73.488281 56.363281 -73.488281 C 42.082031 -73.488281 34.527344 -68.082031 30.367188 -61.773438 L 30.367188 -71.410156 L 7.625 -71.410156 L 7.625 0 L 30.367188 0 L 30.367188 -34.25 C 30.367188 -46.035156 35.289062 -56.019531 51.859375 -56.019531 C 62.671875 -56.019531 69.328125 -52.550781 69.328125 -52.550781 Z M 78.964844 -68.703125 "/></g></g></g><path fill="#ffffff" d="M 540.644531 53.492188 C 531.371094 50.328125 521.417969 49.847656 511.738281 48.785156 C 482.074219 45.988281 452.277344 50.40625 423.453125 57.332031 C 387.0625 65.96875 338.28125 83.945312 303.28125 63.832031 C 315.226562 54.554688 329.890625 42.820312 335.175781 28.257812 C 338.769531 17.933594 330.222656 10.28125 320.578125 15.695312 C 313.820312 19.582031 310.429688 26.976562 307.582031 33.949219 C 305.066406 26.644531 295.136719 17.300781 288.1875 24.992188 C 280.292969 36.851562 287.453125 55.417969 297.695312 63.769531 C 288.761719 69.886719 278.917969 75.011719 268.226562 77.113281 C 263.9375 77.996094 259.558594 78.308594 255.1875 78.1875 C 253.726562 78.296875 251.996094 77.574219 250.699219 78.382812 C 248.257812 81.726562 253.730469 81.410156 255.714844 81.453125 C 271.972656 81.992188 287.363281 75.027344 300.4375 65.851562 C 338.140625 88.953125 390.867188 67.726562 430.425781 59.074219 C 458.605469 52.578125 487.773438 49.15625 516.617188 52.523438 C 523.746094 53.394531 531.011719 53.929688 537.921875 55.988281 C 541.796875 57.34375 545.640625 58.753906 549.398438 60.402344 C 550.734375 60.828125 553.050781 62.957031 554.207031 60.984375 C 556.023438 57.914062 543.285156 54.828125 540.648438 53.492188 Z M 288.308594 39.222656 C 288.050781 34.71875 287.945312 28.917969 291.949219 25.972656 C 299.054688 23.191406 304.316406 33.085938 305.773438 38.792969 C 299.53125 54.242188 312.554688 54.738281 309.152344 38.945312 C 312.066406 31.457031 314.984375 22.847656 322.21875 18.503906 C 328.132812 15.167969 334.035156 18.417969 332.488281 25.519531 C 328.847656 39.804688 311.839844 53.117188 300.5 61.855469 C 293.496094 56.457031 289.195312 47.976562 288.304688 39.222656 Z M 288.308594 39.222656 " fill-opacity="1" fill-rule="nonzero"/><g fill="#ffffff" fill-opacity="1"><g transform="translate(21.778276, 61.798327)"><g><path d="M 36.386719 -31.367188 L 36.386719 -24.695312 C 36.386719 -24.695312 32.957031 -31.992188 22.449219 -31.992188 C 9.386719 -31.992188 3.429688 -24.445312 3.429688 -15.683594 C 3.429688 -6.921875 9.386719 0.625 22.449219 0.625 C 32.957031 0.625 36.386719 -6.671875 36.386719 -6.671875 L 36.386719 16.585938 L 41.1875 16.585938 L 41.1875 -31.367188 Z M 22.449219 -3.492188 C 12.566406 -3.492188 8.511719 -9.230469 8.511719 -15.683594 C 8.511719 -22.136719 12.566406 -27.875 22.449219 -27.875 C 32.332031 -27.875 36.386719 -22.136719 36.386719 -15.683594 C 36.386719 -9.199219 32.332031 -3.492188 22.449219 -3.492188 Z M 22.449219 -3.492188 "/></g></g></g><g fill="#ffffff" fill-opacity="1"><g transform="translate(67.640576, 61.798327)"><g><path d="M 33.175781 -15.152344 C 33.175781 -8.980469 30.183594 -3.492188 21.328125 -3.492188 C 12.472656 -3.492188 9.480469 -8.980469 9.480469 -15.152344 L 9.480469 -31.367188 L 4.675781 -31.367188 L 4.675781 -15.152344 C 4.675781 -5.988281 9.882812 0.625 21.328125 0.625 C 31.304688 0.625 33.175781 -5.832031 33.175781 -5.832031 L 33.175781 0 L 37.976562 0 L 37.976562 -31.367188 L 33.175781 -31.367188 Z M 33.175781 -15.152344 "/></g></g></g><g fill="#ffffff" fill-opacity="1"><g transform="translate(110.291573, 61.798327)"><g><path d="M 21.359375 -13.34375 L 34.546875 0 L 40.847656 0 L 24.539062 -16.496094 L 39.132812 -31.367188 L 32.832031 -31.367188 L 21.359375 -19.644531 L 9.882812 -31.367188 L 3.585938 -31.367188 L 18.179688 -16.496094 L 1.871094 0 L 8.167969 0 Z M 21.359375 -13.34375 "/></g></g></g><g fill="#ffffff" fill-opacity="1"><g transform="translate(153.004926, 61.798327)"><g><path d="M 9.480469 -16.214844 C 9.480469 -22.386719 12.472656 -27.875 21.328125 -27.875 C 30.183594 -27.875 33.175781 -22.386719 33.175781 -16.214844 L 33.175781 0 L 37.976562 0 L 37.976562 -16.214844 C 37.976562 -25.378906 32.769531 -31.992188 21.328125 -31.992188 C 11.347656 -31.992188 9.480469 -25.535156 9.480469 -25.535156 L 9.480469 -31.367188 L 4.675781 -31.367188 L 4.675781 0 L 9.480469 0 Z M 9.480469 -16.214844 "/></g></g></g><g fill="#ffffff" fill-opacity="1"><g transform="translate(195.655924, 61.798327)"><g><path d="M 36.386719 -31.367188 L 36.386719 -24.695312 C 36.199219 -25.039062 32.675781 -31.992188 22.449219 -31.992188 C 9.386719 -31.992188 3.429688 -24.445312 3.429688 -15.683594 C 3.429688 -6.921875 9.386719 0.625 22.449219 0.625 C 32.675781 0.625 36.199219 -6.296875 36.386719 -6.640625 L 36.386719 0 C 36.386719 8.480469 32.054688 12.472656 22.449219 12.472656 C 15.246094 12.472656 9.074219 9.011719 9.074219 9.011719 L 6.890625 12.847656 C 6.890625 12.847656 12.191406 16.585938 22.449219 16.585938 C 32.332031 16.585938 41.1875 13.1875 41.1875 0 L 41.1875 -31.367188 Z M 22.449219 -3.492188 C 12.566406 -3.492188 8.511719 -9.230469 8.511719 -15.683594 C 8.511719 -22.136719 12.566406 -27.875 22.449219 -27.875 C 32.332031 -27.875 36.386719 -22.136719 36.386719 -15.683594 C 36.386719 -9.199219 32.332031 -3.492188 22.449219 -3.492188 Z M 22.449219 -3.492188 "/></g></g></g></svg>